<?xml version="1.0" encoding="UTF-8"?>
<svg width="1400px" height="980px" viewBox="0 0 1400 980" version="1.1" xmlns="http://www.w3.org/2000/svg" xmlns:xlink="http://www.w3.org/1999/xlink">
    <!-- Generator: Sketch 50.2 (55047) - http://www.bohemiancoding.com/sketch -->
    <title>Background-image svg</title>
    <desc>Created with Sketch.</desc>
    <defs></defs>
    <g id="Page-1" stroke="none" stroke-width="1" fill="none" fill-rule="evenodd">
        <g id="43">
            <g id="Background-image-svg">
                <polygon id="Fill-1" fill="#414042" points="0.06 980 1400 980 1400 0 0.06 0"></polygon>
                <path d="M195.406,238.383 C132.497,238.383 81.315,289.565 81.315,352.475 C81.315,415.384 132.497,466.566 195.406,466.566 C258.315,466.566 309.498,415.384 309.498,352.475 C309.498,289.565 258.315,238.383 195.406,238.383 Z M195.406,470.041 C130.58,470.041 77.84,417.301 77.84,352.475 C77.84,287.648 130.58,234.908 195.406,234.908 C260.233,234.908 312.973,287.648 312.973,352.475 C312.973,417.301 260.233,470.041 195.406,470.041 Z" id="Fill-3" fill="#FFFFFF"></path>
                <path d="M152.874,281.767 L152.874,423.168 L275.326,352.468 L152.874,281.767 Z M151.137,427.915 C150.834,427.915 150.536,427.837 150.268,427.683 C149.729,427.373 149.399,426.799 149.399,426.178 L149.399,278.757 C149.399,278.136 149.729,277.563 150.268,277.252 C150.807,276.943 151.465,276.943 152.005,277.252 L279.67,350.963 C280.21,351.273 280.539,351.847 280.539,352.468 C280.539,353.088 280.21,353.662 279.67,353.973 L152.005,427.683 C151.737,427.837 151.438,427.915 151.137,427.915 Z" id="Fill-4" fill="#FFFFFF"></path>
                <path d="M356.978,467.482 L587.475,467.482 L587.475,144.326 L356.978,144.326 L356.978,467.482 Z M589.211,470.957 L355.24,470.957 C354.28,470.957 353.502,470.18 353.502,469.22 L353.502,142.589 C353.502,141.629 354.28,140.852 355.24,140.852 L589.211,140.852 C590.172,140.852 590.949,141.629 590.949,142.589 L590.949,469.22 C590.949,470.18 590.172,470.957 589.211,470.957 Z" id="Fill-5" fill="#FFFFFF"></path>
                <path d="M383.619,386.401 L560.833,386.401 L560.833,172.124 L383.619,172.124 L383.619,386.401 Z M562.571,389.876 L381.881,389.876 C380.921,389.876 380.144,389.099 380.144,388.139 L380.144,170.387 C380.144,169.427 380.921,168.649 381.881,168.649 L562.571,168.649 C563.531,168.649 564.308,169.427 564.308,170.387 L564.308,388.139 C564.308,389.099 563.531,389.876 562.571,389.876 Z" id="Fill-6" fill="#FFFFFF"></path>
                <path d="M395.78,414.776 C389.075,414.776 383.619,420.233 383.619,426.938 C383.619,433.644 389.075,439.1 395.78,439.1 L427.05,439.1 C433.755,439.1 439.212,433.644 439.212,426.938 C439.212,420.233 433.755,414.776 427.05,414.776 L395.78,414.776 Z M427.05,442.575 L395.78,442.575 C387.158,442.575 380.144,435.561 380.144,426.938 C380.144,418.315 387.158,411.302 395.78,411.302 L427.05,411.302 C435.672,411.302 442.687,418.315 442.687,426.938 C442.687,435.561 435.672,442.575 427.05,442.575 Z" id="Fill-7" fill="#FFFFFF"></path>
                <path d="M517.401,414.776 C510.696,414.776 505.24,420.233 505.24,426.938 C505.24,433.644 510.696,439.1 517.401,439.1 L548.671,439.1 C555.376,439.1 560.833,433.644 560.833,426.938 C560.833,420.233 555.376,414.776 548.671,414.776 L517.401,414.776 Z M548.671,442.575 L517.401,442.575 C508.779,442.575 501.765,435.561 501.765,426.938 C501.765,418.315 508.779,411.302 517.401,411.302 L548.671,411.302 C557.294,411.302 564.308,418.315 564.308,426.938 C564.308,435.561 557.294,442.575 548.671,442.575 Z" id="Fill-8" fill="#FFFFFF"></path>
                <path d="M417.929,249.29 C417.484,249.29 417.04,249.12 416.701,248.78 C416.021,248.102 416.021,247.002 416.701,246.324 L454.489,208.535 C455.168,207.856 456.267,207.856 456.945,208.535 C457.625,209.214 457.625,210.313 456.945,210.992 L419.157,248.78 C418.818,249.12 418.374,249.29 417.929,249.29" id="Fill-9" fill="#FFFFFF"></path>
                <path d="M424.01,316.179 C423.565,316.179 423.121,316.009 422.782,315.67 C422.103,314.991 422.103,313.892 422.782,313.213 L513.561,222.435 C514.239,221.756 515.338,221.756 516.017,222.435 C516.695,223.113 516.695,224.212 516.017,224.891 L425.238,315.67 C424.898,316.009 424.454,316.179 424.01,316.179" id="Fill-10" fill="#FFFFFF"></path>
                <path d="M495.246,330.078 C494.802,330.078 494.357,329.909 494.018,329.569 C493.339,328.891 493.339,327.791 494.018,327.113 L531.81,289.324 C532.489,288.646 533.588,288.646 534.267,289.324 C534.945,290.003 534.945,291.102 534.267,291.781 L496.475,329.569 C496.136,329.909 495.691,330.078 495.246,330.078" id="Fill-11" fill="#FFFFFF"></path>
                <path d="M1211.66,315.629 L817.85,315.629 C816.889,315.629 816.111,314.853 816.111,313.892 C816.111,312.932 816.889,312.155 817.85,312.155 L1211.66,312.155 C1212.62,312.155 1213.4,312.932 1213.4,313.892 C1213.4,314.853 1212.62,315.629 1211.66,315.629" id="Fill-12" fill="#FFFFFF"></path>
                <path d="M1087.69,312.155 L1152.57,312.155 L1185.13,250.735 L1120.25,250.735 L1087.69,312.155 Z M1153.61,315.629 L1084.8,315.629 C1084.2,315.629 1083.63,315.311 1083.31,314.788 C1083,314.265 1082.98,313.617 1083.27,313.078 L1117.68,248.184 C1117.97,247.615 1118.56,247.26 1119.21,247.26 L1188.02,247.26 C1188.62,247.26 1189.19,247.579 1189.51,248.102 C1189.82,248.624 1189.84,249.272 1189.55,249.812 L1155.15,314.707 C1154.85,315.274 1154.26,315.629 1153.61,315.629 Z" id="Fill-13" fill="#FFFFFF"></path>
                <path d="M1120.25,377.042 L1185.13,377.042 L1152.57,315.629 L1087.69,315.629 L1120.25,377.042 Z M1188.02,380.517 L1119.21,380.517 C1118.56,380.517 1117.97,380.163 1117.68,379.594 L1083.27,314.707 C1082.98,314.167 1083,313.519 1083.31,312.997 C1083.63,312.474 1084.19,312.155 1084.8,312.155 L1153.61,312.155 C1154.26,312.155 1154.85,312.509 1155.15,313.078 L1189.55,377.965 C1189.84,378.505 1189.82,379.153 1189.51,379.676 C1189.19,380.198 1188.63,380.517 1188.02,380.517 Z" id="Fill-14" fill="#FFFFFF"></path>
                <path d="M817.85,136.094 C719.812,136.094 640.054,215.855 640.054,313.892 C640.054,411.926 719.812,491.684 817.85,491.684 C915.883,491.684 995.64,411.926 995.64,313.892 C995.64,215.855 915.883,136.094 817.85,136.094 Z M817.85,495.158 C717.898,495.158 636.58,413.843 636.58,313.892 C636.58,213.938 717.898,132.619 817.85,132.619 C917.801,132.619 999.115,213.938 999.115,313.892 C999.115,413.843 917.801,495.158 817.85,495.158 Z" id="Fill-15" fill="#FFFFFF"></path>
                <path d="M740.172,430.223 C739.839,430.223 739.5,430.126 739.198,429.922 C713.928,412.762 694.67,387.438 684.972,358.618 C684.664,357.708 685.156,356.723 686.064,356.416 C686.974,356.114 687.958,356.601 688.264,357.508 C697.721,385.616 716.504,410.311 741.152,427.048 C741.943,427.588 742.153,428.667 741.61,429.461 C741.278,429.957 740.729,430.223 740.172,430.223" id="Fill-16" fill="#FFFFFF"></path>
                <path d="M817.85,454.055 C816.889,454.055 816.111,453.278 816.111,452.317 C816.111,451.356 816.889,450.58 817.85,450.58 C829.956,450.58 841.969,448.995 853.555,445.872 C878.465,439.151 900.922,425.494 918.499,406.379 C930.997,392.783 940.461,377.122 946.627,359.838 C951.876,345.118 954.54,329.66 954.54,313.892 C954.54,293.479 950.149,273.842 941.485,255.523 C918.984,207.941 870.456,177.198 817.85,177.198 C804.802,177.198 791.9,179.033 779.501,182.652 C778.578,182.922 777.617,182.393 777.35,181.472 C777.078,180.55 777.607,179.586 778.53,179.317 C791.241,175.606 804.473,173.723 817.85,173.723 C871.793,173.723 921.557,205.247 944.629,254.037 C953.512,272.824 958.015,292.962 958.015,313.892 C958.015,330.058 955.283,345.91 949.897,361.005 C943.576,378.73 933.871,394.788 921.059,408.731 C903.036,428.332 880.005,442.334 854.46,449.227 C842.576,452.431 830.263,454.055 817.85,454.055" id="Fill-17" fill="#FFFFFF"></path>
                <path d="M679.421,315.629 C678.46,315.629 677.683,314.853 677.683,313.892 C677.683,287.831 684.888,262.393 698.522,240.327 C699.024,239.512 700.096,239.257 700.911,239.762 C701.729,240.267 701.979,241.337 701.475,242.153 C688.186,263.67 681.158,288.476 681.158,313.892 C681.158,314.853 680.381,315.629 679.421,315.629" id="Fill-18" fill="#FFFFFF"></path>
                <path d="M735.099,343.995 C734.376,343.995 733.704,343.542 733.456,342.82 C730.273,333.536 728.661,323.804 728.661,313.892 C728.661,312.932 729.438,312.155 730.399,312.155 C731.359,312.155 732.137,312.932 732.137,313.892 C732.137,323.419 733.688,332.773 736.74,341.693 C737.054,342.602 736.568,343.589 735.662,343.901 C735.476,343.964 735.285,343.995 735.099,343.995" id="Fill-19" fill="#FFFFFF"></path>
                <path d="M817.85,403.076 C788.147,403.076 760.484,388.355 743.857,363.701 C743.321,362.906 743.528,361.825 744.325,361.289 C745.119,360.754 746.198,360.963 746.734,361.757 C762.721,385.455 789.304,399.601 817.85,399.601 C818.81,399.601 819.587,400.378 819.587,401.339 C819.587,402.299 818.81,403.076 817.85,403.076" id="Fill-20" fill="#FFFFFF"></path>
                <path d="M847.972,397.749 C847.266,397.749 846.601,397.313 846.34,396.61 C846.011,395.709 846.472,394.709 847.375,394.381 C873.741,384.706 893.707,362.731 900.786,335.6 C902.625,328.544 903.559,321.241 903.559,313.892 C903.559,266.627 865.108,228.176 817.85,228.176 C816.889,228.176 816.111,227.399 816.111,226.438 C816.111,225.479 816.889,224.701 817.85,224.701 C867.025,224.701 907.033,264.712 907.033,313.892 C907.033,321.538 906.063,329.135 904.146,336.477 C896.782,364.709 876.005,387.575 848.569,397.642 C848.372,397.715 848.169,397.749 847.972,397.749" id="Fill-21" fill="#FFFFFF"></path>
                <path d="M741.726,272.551 C741.438,272.551 741.143,272.478 740.871,272.325 C740.036,271.852 739.744,270.792 740.219,269.957 C746.728,258.474 755.887,248.394 766.704,240.809 C767.491,240.256 768.574,240.448 769.124,241.233 C769.674,242.019 769.484,243.104 768.699,243.653 C758.3,250.945 749.496,260.631 743.239,271.67 C742.921,272.234 742.333,272.551 741.726,272.551" id="Fill-22" fill="#FFFFFF"></path>
                <path d="M817.85,271.611 C794.536,271.611 775.571,290.578 775.571,313.892 C775.571,337.203 794.536,356.167 817.85,356.167 C841.158,356.167 860.124,337.203 860.124,313.892 C860.124,290.578 841.158,271.611 817.85,271.611 Z M817.85,359.641 C792.62,359.641 772.097,339.118 772.097,313.892 C772.097,288.662 792.62,268.136 817.85,268.136 C843.075,268.136 863.598,288.662 863.598,313.892 C863.598,339.118 843.075,359.641 817.85,359.641 Z" id="Fill-23" fill="#FFFFFF"></path>
                <path d="M1019.96,740.83 L1219.41,740.83 L1219.41,448.954 L1019.96,448.954 L1019.96,740.83 Z M1221.14,744.306 L1018.23,744.306 C1017.27,744.306 1016.49,743.528 1016.49,742.567 L1016.49,447.217 C1016.49,446.257 1017.27,445.479 1018.23,445.479 L1221.14,445.479 C1222.1,445.479 1222.88,446.257 1222.88,447.217 L1222.88,742.567 C1222.88,743.528 1222.1,744.306 1221.14,744.306 Z" id="Fill-24" fill="#FFFFFF"></path>
                <path d="M1190.37,487.476 L1049,487.476 C1048.04,487.476 1047.26,486.699 1047.26,485.738 C1047.26,484.778 1048.04,484.001 1049,484.001 L1190.37,484.001 C1191.32,484.001 1192.1,484.778 1192.1,485.738 C1192.1,486.699 1191.32,487.476 1190.37,487.476" id="Fill-25" fill="#FFFFFF"></path>
                <path d="M1190.37,524.396 L1049,524.396 C1048.04,524.396 1047.26,523.618 1047.26,522.658 C1047.26,521.697 1048.04,520.92 1049,520.92 L1190.37,520.92 C1191.32,520.92 1192.1,521.697 1192.1,522.658 C1192.1,523.618 1191.32,524.396 1190.37,524.396" id="Fill-26" fill="#FFFFFF"></path>
                <path d="M1190.37,561.315 L1049,561.315 C1048.04,561.315 1047.26,560.538 1047.26,559.577 C1047.26,558.617 1048.04,557.84 1049,557.84 L1190.37,557.84 C1191.32,557.84 1192.1,558.617 1192.1,559.577 C1192.1,560.538 1191.32,561.315 1190.37,561.315" id="Fill-27" fill="#FFFFFF"></path>
                <path d="M1190.37,598.234 L1049,598.234 C1048.04,598.234 1047.26,597.457 1047.26,596.497 C1047.26,595.537 1048.04,594.761 1049,594.761 L1190.37,594.761 C1191.32,594.761 1192.1,595.537 1192.1,596.497 C1192.1,597.457 1191.32,598.234 1190.37,598.234" id="Fill-28" fill="#FFFFFF"></path>
                <path d="M1190.37,635.154 L1049,635.154 C1048.04,635.154 1047.26,634.377 1047.26,633.416 C1047.26,632.457 1048.04,631.68 1049,631.68 L1190.37,631.68 C1191.32,631.68 1192.1,632.457 1192.1,633.416 C1192.1,634.377 1191.32,635.154 1190.37,635.154" id="Fill-29" fill="#FFFFFF"></path>
                <path d="M1190.37,672.07 L1049,672.07 C1048.04,672.07 1047.26,671.293 1047.26,670.333 C1047.26,669.373 1048.04,668.597 1049,668.597 L1190.37,668.597 C1191.32,668.597 1192.1,669.373 1192.1,670.333 C1192.1,671.293 1191.32,672.07 1190.37,672.07" id="Fill-30" fill="#FFFFFF"></path>
                <path d="M1105.44,708.986 L1049,708.986 C1048.04,708.986 1047.26,708.21 1047.26,707.249 C1047.26,706.29 1048.04,705.513 1049,705.513 L1105.44,705.513 C1106.4,705.513 1107.18,706.29 1107.18,707.249 C1107.18,708.21 1106.4,708.986 1105.44,708.986" id="Fill-31" fill="#FFFFFF"></path>
                <path d="M1276.65,694.816 L1286.02,694.816 L1286.02,463.939 L1276.65,463.939 L1276.65,694.816 Z M1287.76,698.291 L1274.92,698.291 C1273.96,698.291 1273.18,697.514 1273.18,696.555 L1273.18,462.202 C1273.18,461.242 1273.96,460.465 1274.92,460.465 L1287.76,460.465 C1288.72,460.465 1289.49,461.242 1289.49,462.202 L1289.49,696.555 C1289.49,697.514 1288.72,698.291 1287.76,698.291 Z" id="Fill-32" fill="#FFFFFF"></path>
                <path d="M1267.29,742.975 L1308.23,742.975 L1308.23,709.529 L1267.29,709.529 L1267.29,742.975 Z M1309.96,746.45 L1265.55,746.45 C1264.59,746.45 1263.81,745.673 1263.81,744.713 L1263.81,707.793 C1263.81,706.832 1264.59,706.056 1265.55,706.056 L1309.96,706.056 C1310.92,706.056 1311.7,706.832 1311.7,707.793 L1311.7,744.713 C1311.7,745.673 1310.92,746.45 1309.96,746.45 Z" id="Fill-33" fill="#FFFFFF"></path>
                <path d="M1289.49,694.816 L1298.86,694.816 L1298.86,463.939 L1289.49,463.939 L1289.49,694.816 Z M1300.6,698.291 L1287.76,698.291 C1286.8,698.291 1286.02,697.514 1286.02,696.555 L1286.02,462.202 C1286.02,461.242 1286.8,460.465 1287.76,460.465 L1300.6,460.465 C1301.56,460.465 1302.33,461.242 1302.33,462.202 L1302.33,696.555 C1302.33,697.514 1301.56,698.291 1300.6,698.291 Z" id="Fill-34" fill="#FFFFFF"></path>
                <path d="M1282.84,418.681 L1294.92,425.005 L1287.76,404.8 L1282.84,418.681 Z M1298.04,430.335 C1297.77,430.335 1297.49,430.271 1297.24,430.136 L1279.89,421.059 C1279.12,420.659 1278.77,419.754 1279.06,418.94 L1286.12,399.021 C1286.61,397.633 1288.9,397.633 1289.39,399.021 L1299.68,428.017 C1299.92,428.69 1299.72,429.44 1299.18,429.909 C1298.86,430.19 1298.45,430.335 1298.04,430.335 Z" id="Fill-35" fill="#FFFFFF"></path>
                <path d="M1268.01,460.465 L1307.5,460.465 L1296.63,429.821 L1281.66,421.987 L1268.01,460.465 Z M1309.96,463.939 L1265.55,463.939 C1264.99,463.939 1264.46,463.664 1264.13,463.205 C1263.81,462.743 1263.73,462.153 1263.92,461.622 L1279.06,418.94 C1279.23,418.465 1279.59,418.086 1280.06,417.903 C1280.53,417.717 1281.05,417.746 1281.5,417.981 L1298.85,427.059 C1299.24,427.261 1299.53,427.603 1299.68,428.017 L1311.6,461.622 C1311.79,462.153 1311.71,462.743 1311.38,463.205 C1311.06,463.664 1310.53,463.939 1309.96,463.939 Z" id="Fill-36" fill="#FFFFFF"></path>
                <path d="M1302.33,694.816 L1308.23,694.816 L1308.23,463.939 L1302.33,463.939 L1302.33,694.816 Z M1309.96,698.291 L1300.6,698.291 C1299.64,698.291 1298.86,697.514 1298.86,696.555 L1298.86,462.202 C1298.86,461.242 1299.64,460.465 1300.6,460.465 L1309.96,460.465 C1310.92,460.465 1311.7,461.242 1311.7,462.202 L1311.7,696.555 C1311.7,697.514 1310.92,698.291 1309.96,698.291 Z" id="Fill-37" fill="#FFFFFF"></path>
                <path d="M1267.29,706.056 L1308.23,706.056 L1308.23,698.291 L1267.29,698.291 L1267.29,706.056 Z M1309.96,709.529 L1265.55,709.529 C1264.59,709.529 1263.81,708.752 1263.81,707.793 L1263.81,696.555 C1263.81,695.594 1264.59,694.816 1265.55,694.816 L1309.96,694.816 C1310.92,694.816 1311.7,695.594 1311.7,696.555 L1311.7,707.793 C1311.7,708.752 1310.92,709.529 1309.96,709.529 Z" id="Fill-38" fill="#FFFFFF"></path>
                <path d="M1267.29,694.816 L1273.18,694.816 L1273.18,463.939 L1267.29,463.939 L1267.29,694.816 Z M1274.92,698.291 L1265.55,698.291 C1264.59,698.291 1263.81,697.514 1263.81,696.555 L1263.81,462.202 C1263.81,461.242 1264.59,460.465 1265.55,460.465 L1274.92,460.465 C1275.88,460.465 1276.65,461.242 1276.65,462.202 L1276.65,696.555 C1276.65,697.514 1275.88,698.291 1274.92,698.291 Z" id="Fill-39" fill="#FFFFFF"></path>
                <path d="M885.234,707.888 C885.56,707.888 885.879,707.979 886.154,708.152 L966.199,758.201 L956.743,664.283 C956.708,663.926 956.783,663.57 956.957,663.259 C972.521,635.426 971.741,601.322 954.916,574.258 C938.853,548.399 911.014,532.96 880.453,532.96 C864.158,532.96 848.203,537.524 834.313,546.157 C828.379,549.852 822.898,554.243 818.021,559.212 C789.705,588.086 784.855,632.277 806.237,666.672 C823.126,693.826 852.964,709.557 885.146,707.888 C885.177,707.888 885.204,707.888 885.234,707.888 Z M968.283,763.291 C967.964,763.291 967.642,763.203 967.364,763.026 L884.776,711.387 C851.549,712.896 820.747,696.58 803.285,668.504 C781.059,632.745 786.097,586.8 815.545,556.775 C820.611,551.61 826.309,547.046 832.478,543.208 C846.92,534.229 863.507,529.485 880.453,529.485 C912.222,529.485 941.163,545.535 957.869,572.426 C975.263,600.406 976.163,635.626 960.259,664.473 L970.01,761.381 C970.078,762.039 969.763,762.677 969.199,763.029 C968.918,763.206 968.603,763.291 968.283,763.291 Z" id="Fill-40" fill="#FFFFFF"></path>
                <path d="M881.139,562.36 C865.254,562.36 850.384,568.604 839.265,579.938 C816.627,603.026 816.991,640.231 840.072,662.871 C851.104,673.689 865.688,679.648 881.132,679.648 C897.017,679.648 911.886,673.404 923.006,662.063 C933.977,650.879 939.932,636.094 939.779,620.431 C939.626,604.768 933.383,590.101 922.198,579.131 C911.167,568.315 896.585,562.36 881.139,562.36 Z M881.132,683.123 C864.772,683.123 849.326,676.812 837.636,665.355 C813.19,641.371 812.807,601.964 836.787,577.508 C848.562,565.495 864.314,558.885 881.139,558.885 C897.498,558.885 912.944,565.193 924.628,576.652 C936.478,588.268 943.091,603.807 943.254,620.396 C943.413,636.987 937.105,652.65 925.49,664.494 C913.708,676.506 897.956,683.123 881.132,683.123 Z" id="Fill-41" fill="#FFFFFF"></path>
                <path d="M558.19,820.862 L568.038,830.724 C568.363,831.049 568.546,831.494 568.546,831.952 L568.546,840.038 C568.546,855.543 581.159,868.155 596.667,868.155 L629.518,868.155 C631.652,868.155 633.787,867.895 636.047,867.357 C648.755,864.327 657.636,853.096 657.636,840.038 L657.636,839.39 C657.636,838.929 657.818,838.488 658.145,838.161 L667.999,828.314 L667.999,824.124 L658.749,820.554 C658.076,820.296 657.636,819.651 657.636,818.935 L657.636,816.984 C657.636,816.522 657.818,816.081 658.145,815.756 L667.999,805.904 L667.999,801.721 L658.749,798.15 C658.076,797.893 657.636,797.248 657.636,796.532 L657.636,781.649 L568.546,781.649 L568.546,789.084 C568.546,789.804 568.105,790.445 567.437,790.705 L558.19,794.289 L558.19,798.456 L568.038,808.317 C568.363,808.643 568.546,809.084 568.546,809.546 L568.546,811.49 C568.546,812.206 568.105,812.851 567.437,813.108 L558.19,816.685 L558.19,820.862 Z M629.518,871.631 L596.667,871.631 C579.246,871.631 565.071,857.46 565.071,840.038 L565.071,832.672 L555.224,822.811 C554.898,822.484 554.715,822.04 554.715,821.582 L554.715,815.494 C554.715,814.778 555.156,814.133 555.824,813.876 L565.071,810.265 L555.224,800.403 C554.898,800.078 554.715,799.637 554.715,799.175 L554.715,793.099 C554.715,792.382 555.156,791.737 555.824,791.479 L565.071,787.896 L565.071,779.912 C565.071,778.951 565.848,778.174 566.809,778.174 L659.373,778.174 C660.333,778.174 661.11,778.951 661.11,779.912 L661.11,795.341 L670.36,798.91 C671.032,799.169 671.474,799.813 671.474,800.529 L671.474,806.624 C671.474,807.085 671.29,807.526 670.964,807.853 L661.11,817.744 L670.36,821.313 C671.032,821.572 671.474,822.217 671.474,822.932 L671.474,829.034 C671.474,829.495 671.29,829.937 670.964,830.263 L661.11,840.109 C661.076,854.752 651.11,867.342 636.851,870.738 C634.323,871.339 631.924,871.631 629.518,871.631 Z" id="Fill-42" fill="#FFFFFF"></path>
                <path d="M599.568,872.225 L599.568,874.375 C599.568,879.038 603.365,882.832 608.031,882.832 L618.144,882.832 C622.813,882.832 626.613,879.038 626.613,874.375 L626.613,872.225 L599.568,872.225 Z M618.144,886.307 L608.031,886.307 C601.448,886.307 596.094,880.956 596.094,874.375 L596.094,870.486 C596.094,869.526 596.871,868.749 597.831,868.749 L628.351,868.749 C629.311,868.749 630.088,869.526 630.088,870.486 L630.088,874.375 C630.088,880.956 624.73,886.307 618.144,886.307 Z" id="Fill-43" fill="#FFFFFF"></path>
                <path d="M563.979,767.136 L663.574,767.136 L673.574,720.544 C673.659,720.138 673.89,719.778 674.219,719.526 C723.433,682.146 722.374,628.106 722.303,625.822 C719.799,572.873 692.481,547.477 670.004,535.502 C660.442,530.405 649.743,526.601 638.208,524.199 C626.244,521.708 617.078,521.514 614.554,521.514 L613.637,521.528 L612.969,521.514 C608.126,521.514 582.523,522.189 557.555,535.502 C535.074,547.471 507.754,572.884 505.25,625.982 C505.237,626.386 504.945,636.572 508.474,651.137 C511.63,664.13 516.805,676.374 523.852,687.527 C527.191,692.82 531.067,697.972 535.366,702.852 C539.234,707.222 543.5,711.387 548.037,715.224 C550.022,716.907 551.726,718.278 553.351,719.52 C553.68,719.771 553.911,720.131 553.999,720.538 L563.979,767.136 Z M664.979,770.61 L562.574,770.61 C561.756,770.61 561.047,770.041 560.874,769.236 L550.735,721.888 C549.218,720.722 547.623,719.426 545.791,717.878 C541.128,713.932 536.744,709.648 532.763,705.152 C528.338,700.134 524.354,694.83 520.914,689.387 C513.666,677.91 508.345,665.317 505.101,651.958 C501.517,637.19 501.741,626.963 501.779,625.843 C504.361,571.088 532.647,544.826 555.92,532.435 C581.618,518.733 607.98,518.04 613.006,518.04 L613.658,518.053 L614.522,518.04 C614.522,518.04 614.526,518.04 614.53,518.04 C617.173,518.04 626.634,518.239 638.914,520.799 C650.774,523.269 661.782,527.185 671.64,532.435 C694.911,544.836 723.191,571.081 725.777,625.69 C725.849,628.065 726.935,683.462 676.835,721.902 L666.679,769.239 C666.505,770.041 665.796,770.61 664.979,770.61 Z" id="Fill-44" fill="#FFFFFF"></path>
                <path d="M551.399,657.351 L613.772,765.397 L676.16,657.351 L551.399,657.351 Z M613.772,770.61 C613.152,770.61 612.578,770.277 612.27,769.741 L546.887,656.481 C546.574,655.942 546.574,655.283 546.887,654.744 C547.195,654.205 547.769,653.876 548.39,653.876 L679.169,653.876 C679.791,653.876 680.364,654.205 680.673,654.744 C680.985,655.283 680.985,655.942 680.673,656.481 L615.276,769.741 C614.967,770.277 614.394,770.61 613.772,770.61 Z" id="Fill-45" fill="#FFFFFF"></path>
                <path d="M139.487,716.67 L422.639,716.67 L422.639,530.191 L139.487,530.191 L139.487,716.67 Z M424.376,720.144 L137.75,720.144 C136.789,720.144 136.013,719.367 136.013,718.407 L136.013,528.453 C136.013,527.494 136.789,526.717 137.75,526.717 L424.376,526.717 C425.336,526.717 426.114,527.494 426.114,528.453 L426.114,718.407 C426.114,719.367 425.336,720.144 424.376,720.144 Z" id="Fill-46" fill="#FFFFFF"></path>
                <path d="M281.064,649.488 C280.671,649.488 280.274,649.353 279.952,649.088 L136.637,529.79 C135.9,529.173 135.802,528.08 136.413,527.341 C137.03,526.607 138.123,526.506 138.863,527.117 L281.064,645.491 L423.267,527.117 C424,526.506 425.096,526.604 425.71,527.341 C426.327,528.08 426.226,529.173 425.486,529.79 L282.178,649.088 C281.855,649.353 281.458,649.488 281.064,649.488" id="Fill-47" fill="#FFFFFF"></path>
                <polyline id="Fill-48" fill="#414042" points="472.015 684.785 345.44 640.187 345.348 640.041 345.332 640.149 345.229 640.115 345.318 640.262 323.889 772.737 356.269 742.554 426.192 860.303 500.062 816.438 430.155 698.712 472.015 684.785"></polyline>
                <path d="M356.269,740.816 C356.35,740.816 356.431,740.823 356.513,740.833 C357.035,740.908 357.493,741.217 357.761,741.665 L426.799,857.922 L497.68,815.83 L428.662,699.601 C428.394,699.146 428.343,698.597 428.526,698.104 C428.709,697.612 429.106,697.229 429.605,697.063 L466.654,684.738 L346.719,642.477 L326.413,768.011 L355.084,741.285 C355.406,740.979 355.831,740.816 356.269,740.816 Z M426.192,862.041 C425.601,862.041 425.024,861.735 424.699,861.193 L355.875,745.296 L325.073,774.011 C324.53,774.513 323.726,774.621 323.071,774.268 C322.416,773.922 322.056,773.195 322.172,772.46 L343.563,640.237 C343.55,639.831 343.665,639.42 343.917,639.104 C343.967,639.043 344.019,638.982 344.073,638.928 C344.317,638.663 344.633,638.467 344.989,638.392 C345.511,638.286 346.034,638.395 346.434,638.693 L472.592,683.146 C473.292,683.395 473.76,684.059 473.753,684.799 C473.746,685.546 473.268,686.197 472.565,686.435 L432.751,699.679 L501.555,815.552 C502.047,816.373 501.775,817.442 500.947,817.931 L427.081,861.797 C426.803,861.963 426.494,862.041 426.192,862.041 Z" id="Fill-49" fill="#FFFFFF"></path>
                <path d="M799.42,737.128 L801.482,736.643 L801.024,734.58 C799.003,725.428 795.744,716.643 791.357,708.468 L790.376,706.635 L788.514,707.571 C784.31,709.676 779.586,710.796 774.858,710.796 C766.933,710.796 759.436,707.755 753.725,702.244 C744.461,693.275 741.872,679.374 747.281,667.659 L748.149,665.769 L746.283,664.843 C737.834,660.672 728.824,657.689 719.517,655.986 L717.45,655.612 L717.036,657.673 C715.893,663.353 713.154,668.589 709.126,672.804 C703.323,678.775 695.549,682.067 687.219,682.067 C679.278,682.067 671.772,679.027 666.078,673.533 C663.574,671.079 661.524,668.242 659.997,665.121 L659.067,663.228 L657.16,664.13 C648.633,668.148 640.676,673.37 633.512,679.664 L631.951,681.028 L633.277,682.637 C643.159,694.528 642.477,711.936 631.697,723.113 C625.941,729.072 618.177,732.36 609.843,732.36 C607.78,732.36 605.717,732.153 603.708,731.739 L601.672,731.326 L601.194,733.352 C599.09,742.426 598.218,751.736 598.604,761.011 L599.005,763.066 L601.061,763.066 C609.049,763.066 616.596,766.097 622.324,771.611 C628.158,777.265 631.452,784.865 631.578,792.996 C631.72,801.133 628.676,808.829 623.023,814.659 C622.226,815.487 621.391,816.214 620.546,816.906 L618.931,818.226 L620.22,819.882 C623.132,823.594 626.308,827.154 629.701,830.479 C633.237,833.845 636.797,836.825 640.594,839.573 L642.264,840.788 L643.533,839.16 C644.208,838.29 644.938,837.429 645.711,836.611 C651.503,830.629 659.281,827.337 667.605,827.337 C675.532,827.337 683.055,830.374 688.769,835.889 C694.562,841.501 697.856,849.055 698.037,857.148 L698.081,859.218 L701.022,859.245 C710.076,859.245 719.063,858.058 727.729,855.727 L729.728,855.183 L729.242,853.157 C726.809,842.974 729.697,832.41 736.979,824.9 C738.326,823.482 739.866,822.179 741.536,821.031 C752.068,813.723 767.18,814.109 777.388,821.945 L779.042,823.214 L780.349,821.609 C781.174,820.601 781.964,819.573 782.734,818.542 C787.699,812.013 791.863,804.894 795.107,797.388 L795.955,795.426 L794.008,794.578 C790.713,793.139 787.729,791.136 785.145,788.653 C779.294,783.006 775.985,775.419 775.863,767.285 C775.725,759.158 778.765,751.462 784.404,745.622 C788.514,741.403 793.708,738.462 799.42,737.128" id="Fill-50" fill="#414042"></path>
                <path d="M699.781,857.494 L701.033,857.507 C709.917,857.507 718.746,856.344 727.277,854.046 L727.644,853.947 L727.553,853.564 C724.979,842.793 728.037,831.627 735.733,823.689 C737.138,822.209 738.767,820.825 740.553,819.6 C745.695,816.03 752.168,814.063 758.764,814.063 C765.988,814.063 772.979,816.373 778.445,820.567 L778.762,820.808 L779.002,820.513 C779.813,819.521 780.587,818.512 781.344,817.5 C786.232,811.072 790.322,804.075 793.512,796.698 L793.672,796.325 L793.313,796.169 C789.844,794.656 786.691,792.548 783.939,789.904 C777.74,783.919 774.255,775.897 774.126,767.313 C773.98,758.728 777.187,750.596 783.156,744.414 C787.506,739.948 792.993,736.846 799.026,735.435 L799.413,735.346 L799.328,734.956 C797.343,725.975 794.146,717.342 789.827,709.289 L789.644,708.946 L789.294,709.122 C784.835,711.355 779.847,712.533 774.858,712.533 C766.49,712.533 758.557,709.323 752.517,703.496 C742.724,694.009 739.984,679.316 745.703,666.93 L745.866,666.576 L745.51,666.4 C737.203,662.298 728.349,659.369 719.204,657.693 L718.817,657.625 L718.739,658.016 C717.531,664.019 714.641,669.549 710.382,674.005 C704.236,680.326 696.014,683.805 687.219,683.805 C678.837,683.805 670.9,680.602 664.874,674.781 C662.216,672.183 660.055,669.19 658.436,665.885 L658.263,665.531 L657.904,665.702 C649.508,669.658 641.69,674.796 634.659,680.971 L634.367,681.227 L634.619,681.531 C645.063,694.104 644.347,712.499 632.949,724.318 C626.858,730.623 618.652,734.098 609.843,734.098 C607.655,734.098 605.473,733.878 603.359,733.439 L602.975,733.365 L602.883,733.752 C600.817,742.67 599.958,751.818 600.338,760.939 L600.42,761.33 L601.061,761.33 C609.5,761.33 617.481,764.536 623.529,770.358 C629.708,776.349 633.183,784.377 633.315,792.97 C633.465,801.564 630.254,809.698 624.269,815.871 C623.427,816.743 622.545,817.513 621.649,818.25 L621.343,818.497 L621.591,818.816 C624.479,822.494 627.618,826.004 630.916,829.241 C634.408,832.563 637.913,835.488 641.612,838.166 L641.928,838.396 L642.162,838.091 C642.871,837.182 643.638,836.275 644.449,835.417 C650.584,829.081 658.803,825.6 667.605,825.6 C675.99,825.6 683.938,828.81 689.977,834.636 C696.105,840.574 699.584,848.556 699.774,857.106 L699.781,857.494 Z M701.022,860.982 C701.02,860.982 701.013,860.982 701.006,860.982 L698.064,860.955 C697.124,860.948 696.364,860.194 696.343,859.255 L696.299,857.185 C696.129,849.553 693.025,842.435 687.562,837.134 C682.173,831.938 675.087,829.074 667.605,829.074 C659.753,829.074 652.42,832.179 646.959,837.819 C646.237,838.582 645.545,839.4 644.903,840.225 L643.634,841.856 C643.058,842.597 641.999,842.742 641.242,842.193 L639.572,840.979 C635.749,838.212 632.127,835.186 628.503,831.738 C625.076,828.379 621.839,824.758 618.853,820.954 L617.56,819.292 C616.98,818.548 617.102,817.479 617.831,816.883 L619.447,815.559 C620.237,814.914 621.024,814.231 621.771,813.455 C627.112,807.951 629.976,800.695 629.84,793.027 C629.722,785.357 626.624,778.198 621.116,772.857 C615.721,767.665 608.598,764.804 601.061,764.804 L599.005,764.804 C598.174,764.804 597.458,764.217 597.298,763.399 L596.898,761.343 C596.477,751.652 597.359,742.188 599.5,732.957 L599.982,730.929 C600.196,730.012 601.099,729.436 602.019,729.625 L604.055,730.039 C605.944,730.427 607.889,730.623 609.843,730.623 C617.699,730.623 625.018,727.528 630.448,721.908 C640.614,711.362 641.259,694.959 631.941,683.747 L630.611,682.136 C630.013,681.409 630.098,680.341 630.808,679.723 L632.369,678.358 C639.64,671.965 647.733,666.651 656.42,662.559 L658.324,661.656 C659.186,661.256 660.208,661.609 660.625,662.464 L661.555,664.358 C663,667.307 664.931,669.977 667.293,672.291 C672.665,677.473 679.743,680.33 687.219,680.33 C695.067,680.33 702.404,677.225 707.881,671.592 C711.674,667.622 714.254,662.688 715.332,657.329 L715.746,655.271 C715.933,654.344 716.826,653.736 717.759,653.903 L719.825,654.275 C729.293,656.01 738.451,659.04 747.054,663.286 L748.924,664.215 C749.762,664.629 750.122,665.64 749.728,666.495 L748.858,668.386 C743.755,679.438 746.198,692.54 754.933,700.995 C760.321,706.194 767.396,709.059 774.858,709.059 C779.311,709.059 783.763,708.007 787.737,706.018 L789.596,705.085 C790.438,704.657 791.463,704.986 791.907,705.817 L792.892,707.649 C797.36,715.978 800.669,724.912 802.721,734.206 L803.18,736.267 C803.383,737.192 802.807,738.116 801.88,738.333 L799.816,738.821 C794.432,740.077 789.532,742.849 785.649,746.837 C780.328,752.34 777.469,759.596 777.6,767.255 C777.716,774.913 780.824,782.066 786.349,787.4 C788.802,789.756 791.611,791.636 794.703,792.985 L796.65,793.834 C797.526,794.214 797.931,795.235 797.551,796.114 L796.702,798.076 C793.4,805.711 789.169,812.952 784.116,819.594 C783.343,820.636 782.535,821.681 781.692,822.708 L780.391,824.311 C779.796,825.04 778.73,825.162 777.987,824.592 L776.331,823.322 C771.466,819.59 765.229,817.537 758.764,817.537 C752.87,817.537 747.102,819.284 742.526,822.461 C740.933,823.554 739.493,824.774 738.237,826.098 C731.363,833.188 728.635,843.146 730.932,852.754 L731.417,854.778 C731.634,855.691 731.088,856.611 730.182,856.859 L728.183,857.402 C719.351,859.777 710.216,860.982 701.022,860.982 Z" id="Fill-51" fill="#FFFFFF"></path>
                <path d="M752.856,757.431 C752.856,786.623 729.194,810.282 699.998,810.282 C670.805,810.282 647.143,786.623 647.143,757.431 C647.143,728.23 670.805,704.572 699.998,704.572 C729.194,704.572 752.856,728.23 752.856,757.431" id="Fill-52" fill="#414042"></path>
                <path d="M699.998,706.31 C671.813,706.31 648.881,729.242 648.881,757.431 C648.881,785.615 671.813,808.545 699.998,808.545 C728.187,808.545 751.119,785.615 751.119,757.431 C751.119,729.242 728.187,706.31 699.998,706.31 Z M699.998,812.02 C669.896,812.02 645.406,787.529 645.406,757.431 C645.406,727.324 669.896,702.835 699.998,702.835 C730.101,702.835 754.594,727.324 754.594,757.431 C754.594,787.529 730.101,812.02 699.998,812.02 Z" id="Fill-53" fill="#FFFFFF"></path>
                <path d="M1061.78,194.005 C1061.78,206.479 1051.67,216.591 1039.2,216.591 C1026.72,216.591 1016.61,206.479 1016.61,194.005 C1016.61,181.531 1026.72,171.419 1039.2,171.419 C1051.67,171.419 1061.78,181.531 1061.78,194.005" id="Fill-54" fill="#414042"></path>
                <path d="M1039.2,173.156 C1027.7,173.156 1018.35,182.508 1018.35,194.005 C1018.35,205.501 1027.7,214.854 1039.2,214.854 C1050.69,214.854 1060.05,205.501 1060.05,194.005 C1060.05,182.508 1050.69,173.156 1039.2,173.156 Z M1039.2,218.328 C1025.78,218.328 1014.87,207.417 1014.87,194.005 C1014.87,180.592 1025.78,169.681 1039.2,169.681 C1052.61,169.681 1063.52,180.592 1063.52,194.005 C1063.52,207.417 1052.61,218.328 1039.2,218.328 Z" id="Fill-55" fill="#FFFFFF"></path>
                <path d="M495.246,522.658 C495.246,531.212 488.311,538.148 479.756,538.148 C471.201,538.148 464.265,531.212 464.265,522.658 C464.265,514.104 471.201,507.167 479.756,507.167 C488.311,507.167 495.246,514.104 495.246,522.658" id="Fill-56" fill="#414042"></path>
                <path d="M479.756,508.904 C472.171,508.904 466.002,515.073 466.002,522.658 C466.002,530.242 472.171,536.411 479.756,536.411 C487.34,536.411 493.509,530.242 493.509,522.658 C493.509,515.073 487.34,508.904 479.756,508.904 Z M479.756,539.887 C470.258,539.887 462.528,532.16 462.528,522.658 C462.528,513.158 470.258,505.43 479.756,505.43 C489.253,505.43 496.984,513.158 496.984,522.658 C496.984,532.16 489.253,539.887 479.756,539.887 Z" id="Fill-57" fill="#FFFFFF"></path>
                <path d="M1224.6,798.619 C1224.6,807.174 1217.66,814.109 1209.11,814.109 C1200.56,814.109 1193.62,807.174 1193.62,798.619 C1193.62,790.063 1200.56,783.129 1209.11,783.129 C1217.66,783.129 1224.6,790.063 1224.6,798.619" id="Fill-58" fill="#414042"></path>
                <path d="M1209.11,784.865 C1201.53,784.865 1195.36,791.035 1195.36,798.619 C1195.36,806.203 1201.53,812.373 1209.11,812.373 C1216.69,812.373 1222.86,806.203 1222.86,798.619 C1222.86,791.035 1216.69,784.865 1209.11,784.865 Z M1209.11,815.847 C1199.61,815.847 1191.88,808.12 1191.88,798.619 C1191.88,789.117 1199.61,781.391 1209.11,781.391 C1218.61,781.391 1226.34,789.117 1226.34,798.619 C1226.34,808.12 1218.61,815.847 1209.11,815.847 Z" id="Fill-59" fill="#FFFFFF"></path>
                <path d="M905.296,798.619 C905.296,811.962 894.478,822.78 881.135,822.78 C867.793,822.78 856.975,811.962 856.975,798.619 C856.975,785.276 867.793,774.458 881.135,774.458 C894.478,774.458 905.296,785.276 905.296,798.619" id="Fill-60" fill="#414042"></path>
                <path d="M881.135,776.195 C868.77,776.195 858.712,786.253 858.712,798.619 C858.712,810.984 868.77,821.042 881.135,821.042 C893.501,821.042 903.559,810.984 903.559,798.619 C903.559,786.253 893.501,776.195 881.135,776.195 Z M881.135,824.518 C866.856,824.518 855.236,812.898 855.236,798.619 C855.236,784.34 866.856,772.721 881.135,772.721 C895.414,772.721 907.033,784.34 907.033,798.619 C907.033,812.898 895.414,824.518 881.135,824.518 Z" id="Fill-61" fill="#FFFFFF"></path>
                <path d="M296.175,185.318 C296.175,194.915 288.397,202.692 278.802,202.692 C269.205,202.692 261.428,194.915 261.428,185.318 C261.428,175.722 269.205,167.944 278.802,167.944 C288.397,167.944 296.175,175.722 296.175,185.318" id="Fill-62" fill="#414042"></path>
                <path d="M278.802,169.681 C270.179,169.681 263.165,176.695 263.165,185.318 C263.165,193.94 270.179,200.954 278.802,200.954 C287.424,200.954 294.438,193.94 294.438,185.318 C294.438,176.695 287.424,169.681 278.802,169.681 Z M278.802,204.429 C268.265,204.429 259.69,195.856 259.69,185.318 C259.69,174.78 268.265,166.207 278.802,166.207 C289.338,166.207 297.913,174.78 297.913,185.318 C297.913,195.856 289.338,204.429 278.802,204.429 Z" id="Fill-63" fill="#FFFFFF"></path>
                <path d="M281.061,791.669 C281.061,802.515 272.273,811.304 261.428,811.304 C250.582,811.304 241.793,802.515 241.793,791.669 C241.793,780.824 250.582,772.035 261.428,772.035 C272.273,772.035 281.061,780.824 281.061,791.669" id="Fill-64" fill="#414042"></path>
                <path d="M261.428,773.773 C251.56,773.773 243.531,781.802 243.531,791.669 C243.531,801.537 251.56,809.566 261.428,809.566 C271.295,809.566 279.324,801.537 279.324,791.669 C279.324,781.802 271.295,773.773 261.428,773.773 Z M261.428,813.04 C249.642,813.04 240.056,803.451 240.056,791.669 C240.056,779.888 249.642,770.298 261.428,770.298 C273.213,770.298 282.799,779.888 282.799,791.669 C282.799,803.451 273.213,813.04 261.428,813.04 Z" id="Fill-65" fill="#FFFFFF"></path>
                <path d="M1283.08,316.179 L1248.03,316.179 C1247.07,316.179 1246.29,315.402 1246.29,314.441 C1246.29,313.481 1247.07,312.705 1248.03,312.705 L1283.08,312.705 C1284.04,312.705 1284.81,313.481 1284.81,314.441 C1284.81,315.402 1284.04,316.179 1283.08,316.179" id="Fill-66" fill="#FFFFFF"></path>
                <path d="M1265.55,333.702 C1264.59,333.702 1263.81,332.925 1263.81,331.965 L1263.81,296.918 C1263.81,295.958 1264.59,295.181 1265.55,295.181 C1266.51,295.181 1267.29,295.958 1267.29,296.918 L1267.29,331.965 C1267.29,332.925 1266.51,333.702 1265.55,333.702" id="Fill-67" fill="#FFFFFF"></path>
                <path d="M770.379,532.964 L735.333,532.964 C734.372,532.964 733.596,532.187 733.596,531.227 C733.596,530.266 734.372,529.489 735.333,529.489 L770.379,529.489 C771.34,529.489 772.117,530.266 772.117,531.227 C772.117,532.187 771.34,532.964 770.379,532.964" id="Fill-68" fill="#FFFFFF"></path>
                <path d="M752.856,550.486 C751.896,550.486 751.119,549.71 751.119,548.749 L751.119,513.703 C751.119,512.742 751.896,511.965 752.856,511.965 C753.816,511.965 754.594,512.742 754.594,513.703 L754.594,548.749 C754.594,549.71 753.816,550.486 752.856,550.486" id="Fill-69" fill="#FFFFFF"></path>
                <path d="M1084.05,812.02 L1049,812.02 C1048.04,812.02 1047.26,811.242 1047.26,810.282 C1047.26,809.322 1048.04,808.545 1049,808.545 L1084.05,808.545 C1085.01,808.545 1085.79,809.322 1085.79,810.282 C1085.79,811.242 1085.01,812.02 1084.05,812.02" id="Fill-70" fill="#FFFFFF"></path>
                <path d="M1066.52,829.543 C1065.56,829.543 1064.79,828.766 1064.79,827.805 L1064.79,792.759 C1064.79,791.798 1065.56,791.021 1066.52,791.021 C1067.48,791.021 1068.26,791.798 1068.26,792.759 L1068.26,827.805 C1068.26,828.766 1067.48,829.543 1066.52,829.543" id="Fill-71" fill="#FFFFFF"></path>
                <path d="M162.175,781.649 L140.098,781.649 C139.138,781.649 138.361,780.872 138.361,779.912 C138.361,778.951 139.138,778.174 140.098,778.174 L162.175,778.174 C163.136,778.174 163.913,778.951 163.913,779.912 C163.913,780.872 163.136,781.649 162.175,781.649" id="Fill-72" fill="#FFFFFF"></path>
                <path d="M151.137,792.688 C150.176,792.688 149.399,791.91 149.399,790.949 L149.399,768.873 C149.399,767.912 150.176,767.136 151.137,767.136 C152.097,767.136 152.874,767.912 152.874,768.873 L152.874,790.949 C152.874,791.91 152.097,792.688 151.137,792.688" id="Fill-73" fill="#FFFFFF"></path>
                <path d="M313.699,481.462 L278.652,481.462 C277.692,481.462 276.915,480.686 276.915,479.726 C276.915,478.765 277.692,477.988 278.652,477.988 L313.699,477.988 C314.659,477.988 315.436,478.765 315.436,479.726 C315.436,480.686 314.659,481.462 313.699,481.462" id="Fill-74" fill="#FFFFFF"></path>
                <path d="M296.175,498.986 C295.215,498.986 294.438,498.209 294.438,497.248 L294.438,462.202 C294.438,461.242 295.215,460.465 296.175,460.465 C297.135,460.465 297.913,461.242 297.913,462.202 L297.913,497.248 C297.913,498.209 297.135,498.986 296.175,498.986" id="Fill-75" fill="#FFFFFF"></path>
                <path d="M653.496,463.939 L630.909,463.939 C629.949,463.939 629.172,463.162 629.172,462.202 C629.172,461.242 629.949,460.465 630.909,460.465 L653.496,460.465 C654.456,460.465 655.232,461.242 655.232,462.202 C655.232,463.162 654.456,463.939 653.496,463.939" id="Fill-76" fill="#FFFFFF"></path>
                <path d="M1079.16,403.076 L1027.9,403.076 C1026.94,403.076 1026.17,402.299 1026.17,401.339 C1026.17,400.378 1026.94,399.601 1027.9,399.601 L1079.16,399.601 C1080.12,399.601 1080.89,400.378 1080.89,401.339 C1080.89,402.299 1080.12,403.076 1079.16,403.076" id="Fill-77" fill="#FFFFFF"></path>
                <path d="M1126.94,195.742 L1093.06,195.742 C1092.1,195.742 1091.32,194.965 1091.32,194.005 C1091.32,193.044 1092.1,192.268 1093.06,192.268 L1126.94,192.268 C1127.9,192.268 1128.67,193.044 1128.67,194.005 C1128.67,194.965 1127.9,195.742 1126.94,195.742" id="Fill-78" fill="#FFFFFF"></path>
                <path d="M990.024,860.982 L949.678,860.982 C948.717,860.982 947.939,860.205 947.939,859.245 C947.939,858.284 948.717,857.507 949.678,857.507 L990.024,857.507 C990.985,857.507 991.762,858.284 991.762,859.245 C991.762,860.205 990.985,860.982 990.024,860.982" id="Fill-79" fill="#FFFFFF"></path>
                <path d="M1209.11,860.982 L1131.27,860.982 C1130.31,860.982 1129.54,860.205 1129.54,859.245 C1129.54,858.284 1130.31,857.507 1131.27,857.507 L1209.11,857.507 C1210.07,857.507 1210.85,858.284 1210.85,859.245 C1210.85,860.205 1210.07,860.982 1209.11,860.982" id="Fill-80" fill="#FFFFFF"></path>
                <path d="M238.196,866.378 L191.738,866.378 C190.778,866.378 190,865.601 190,864.64 C190,863.68 190.778,862.902 191.738,862.902 L238.196,862.902 C239.157,862.902 239.934,863.68 239.934,864.64 C239.934,865.601 239.157,866.378 238.196,866.378" id="Fill-81" fill="#FFFFFF"></path>
            </g>
        </g>
    </g>
</svg>