<?xml version="1.0" encoding="UTF-8"?>
<svg width="56px" height="89px" viewBox="0 0 56 89" version="1.1" xmlns="http://www.w3.org/2000/svg" xmlns:xlink="http://www.w3.org/1999/xlink">
    <!-- Generator: Sketch 50.2 (55047) - http://www.bohemiancoding.com/sketch -->
    <title>login-logo</title>
    <desc>Created with Sketch.</desc>
    <defs></defs>
    <g id="Page-1" stroke="none" stroke-width="1" fill="none" fill-rule="evenodd">
        <g id="5082" transform="translate(-13.000000, -190.000000)">
            <g id="login-logo" transform="translate(13.000000, 190.000000)">
                <path d="M27.177,45.228 C27.177,45.228 27.352,56.71 32.299,58.954 C37.246,61.199 24.067,58.484 24.067,58.484 L21.83,48.954 L27.177,45.228" id="Fill-122" fill="#EDB192"></path>
                <path d="M55.996,54.954 C55.996,56.243 54.938,57.303 53.645,57.303 L29.538,57.303 C28.244,57.303 27.188,56.243 27.188,54.954 L27.188,3.31 C27.188,2.016 28.244,0.958 29.538,0.958 L53.645,0.958 C54.938,0.958 55.996,2.016 55.996,3.31 L55.996,54.954" id="Fill-123" fill="#3F403D"></path>
                <polygon id="Fill-124" fill="#91ADA9" points="29.243 51.224 53.938 51.224 53.938 4.682 29.243 4.682"></polygon>
                <path d="M41.723,36.995 C41.723,36.995 53.602,39.732 52.611,36.995 C51.622,34.26 51.098,27.389 51.098,20.051 C51.098,12.715 47.721,8.989 41.723,8.989 L41.585,8.989 C35.588,8.989 32.211,12.715 32.211,20.051 C32.211,27.389 31.686,34.26 30.698,36.995 C29.707,39.732 41.585,36.995 41.585,36.995 L41.723,36.995" id="Fill-125" fill="#89583C"></path>
                <path d="M52.061,37.18 C51.88,36.836 51.605,36.553 51.262,36.369 C50.175,35.788 47.618,34.401 45.952,33.321 C45.708,33.162 45.517,32.958 45.364,32.714 C45.179,32.311 44.885,31.457 44.725,29.902 L38.463,29.902 C38.303,31.457 38.003,32.311 37.817,32.714 C37.67,32.958 37.473,33.162 37.236,33.321 C36.31,33.916 35.122,34.606 34.054,35.206 C33.671,35.416 33.306,35.62 32.974,35.8 C32.879,35.852 32.789,35.904 32.699,35.953 C32.393,36.114 32.13,36.254 31.92,36.369 C31.575,36.553 31.3,36.836 31.121,37.18 L29.243,40.848 L29.243,51.224 L53.938,51.224 L53.938,40.84 L52.061,37.18" id="Fill-126" fill="#F6C9AE"></path>
                <path d="M44.723,29.905 L38.494,29.905 C38.469,30.148 38.439,30.37 38.409,30.579 C39.345,31.327 40.432,31.725 41.608,31.725 C42.784,31.725 43.871,31.327 44.807,30.579 C44.776,30.37 44.747,30.148 44.723,29.905" id="Fill-127" fill="#EEAA8E"></path>
                <path d="M35.626,24.847 C35.626,24.847 34.625,25.914 34.139,23.372 C33.618,20.654 33.637,19.178 34.568,18.869 C35.164,18.671 35.336,19.178 35.336,19.178 L35.626,24.847" id="Fill-128" fill="#F6C9AE"></path>
                <path d="M41.608,30.979 C45.277,30.979 48.091,27.137 48.091,20.77 C48.091,12.832 45.762,10.988 41.608,10.988 C37.455,10.988 35.126,12.832 35.126,20.77 C35.126,27.137 37.94,30.979 41.608,30.979" id="Fill-129" fill="#F6C9AE"></path>
                <path d="M47.683,24.847 C47.683,24.847 48.684,25.914 49.171,23.372 C49.69,20.654 49.673,19.178 48.74,18.869 C48.145,18.671 47.974,19.178 47.974,19.178 L47.683,24.847" id="Fill-130" fill="#F6C9AE"></path>
                <path d="M34.802,22.381 L35.442,22.381 C35.442,22.381 35.257,19.257 38.499,17.636 C40.479,16.646 43.943,16.239 45.719,13.59 C45.719,13.59 47.814,17.518 47.814,22.381 L48.456,22.381 C48.456,22.381 49.416,16.821 47.699,13.59 C45.98,10.359 41.73,10.737 41.585,10.737 C41.438,10.737 37.479,10.676 35.967,13.764 C34.453,16.85 33.957,17.518 34.802,22.381" id="Fill-131" fill="#89583C"></path>
                <polyline id="Fill-132" fill="#1C5E78" points="49.076 35.201 46.768 41.111 36.364 41.111 34.057 35.201 32.699 35.948 33.795 42.381 33.795 51.228 49.307 51.215 49.336 42.381 50.432 35.948 49.076 35.201"></polyline>
                <path d="M42.575,36.49 C42.575,36.98 42.179,37.378 41.689,37.378 C41.199,37.378 40.803,36.98 40.803,36.49 C40.803,36.002 41.199,35.605 41.689,35.605 C42.179,35.605 42.575,36.002 42.575,36.49" id="Fill-133" fill="#E46F2A"></path>
                <path d="M44.134,35.773 C44.134,36.16 43.821,36.471 43.436,36.471 C43.05,36.471 42.736,36.16 42.736,35.773 C42.736,35.387 43.05,35.074 43.436,35.074 C43.821,35.074 44.134,35.387 44.134,35.773" id="Fill-134" fill="#E46F2A"></path>
                <path d="M40.641,35.773 C40.641,36.16 40.328,36.471 39.942,36.471 C39.557,36.471 39.243,36.16 39.243,35.773 C39.243,35.387 39.557,35.074 39.942,35.074 C40.328,35.074 40.641,35.387 40.641,35.773" id="Fill-135" fill="#E46F2A"></path>
                <path d="M39.268,34.968 C39.268,35.328 38.977,35.619 38.616,35.619 C38.256,35.619 37.964,35.328 37.964,34.968 C37.964,34.608 38.256,34.316 38.616,34.316 C38.977,34.316 39.268,34.608 39.268,34.968" id="Fill-136" fill="#E46F2A"></path>
                <path d="M45.434,34.968 C45.434,35.328 45.142,35.619 44.781,35.619 C44.42,35.619 44.128,35.328 44.128,34.968 C44.128,34.608 44.42,34.316 44.781,34.316 C45.142,34.316 45.434,34.608 45.434,34.968" id="Fill-137" fill="#E46F2A"></path>
                <path d="M38.118,33.996 C38.118,34.318 37.858,34.578 37.534,34.578 C37.214,34.578 36.953,34.318 36.953,33.996 C36.953,33.674 37.214,33.413 37.534,33.413 C37.858,33.413 38.118,33.674 38.118,33.996" id="Fill-138" fill="#E46F2A"></path>
                <path d="M46.425,33.996 C46.425,34.318 46.163,34.578 45.842,34.578 C45.52,34.578 45.26,34.318 45.26,33.996 C45.26,33.674 45.52,33.413 45.842,33.413 C46.163,33.413 46.425,33.674 46.425,33.996" id="Fill-139" fill="#E46F2A"></path>
                <path d="M23.555,33.794 L27.188,27.955 L27.188,44.746 C27.188,44.746 22.242,39.537 23.555,33.794" id="Fill-140" fill="#EDB192"></path>
                <path d="M17.251,23.926 C16.6898066,25.0501459 19.4126595,40.6033895 17.251,53.7076616 C15.7263932,62.9500341 9.60608771,70.4403125 7.668,73.127 C6.52888463,74.7061066 0.238715915,78.108419 0.755736952,81.645 C1.16606737,84.4517847 7.99996147,87.5795032 9.9243167,88.2682304 C11.4580837,88.817166 15.0539781,86.6094226 20.712,81.645 C20.712,81.645 31.84,77.598 34.716,73.34 C37.592,69.079 40.29,63.879 43.343,60.24 C46.111,56.939 50.643,50.715 50.643,50.715 L46.781,46.788 C46.781,46.788 40.8666729,53.6170715 36.8895096,57.1264001 C34.2491963,59.4561326 33.2269815,58.963 32.587,58.963 C30.511,58.963 25.983,58.005 25.719,52.094 C25.599,49.432 27.188,48.472 27.188,44.746 C27.188,41.019 24.437,38.282 23.852,36.046 C23.266,33.81 23.428,27.175 24.014,26.164 C24.599,25.151 27.188,19.189 27.188,19.189 L27.188,10.189 C27.188,10.189 18.211,22.009 17.251,23.926 Z" id="Fill-141" fill="#F6C9AE"></path>
                <path d="M51.276,48.954 C51.276,50.481 50.036,51.72 48.508,51.72 C46.979,51.72 45.739,50.481 45.739,48.954 C45.739,47.423 46.979,46.184 48.508,46.184 C50.036,46.184 51.276,47.423 51.276,48.954" id="Fill-142" fill="#F6C9AE"></path>
                <path d="M49.3020527,51.1482758 C48.3511937,51.4166556 46.0424701,49.6567493 46,48.4181648 C48.125866,45.8127435 49.7019798,44.1822771 51.2061303,45.4244241 C53.0500418,46.9515763 50.8392355,49.2601173 49.3020527,51.1482758 Z" id="Fill-143" fill="#B84D2D"></path>
            </g>
        </g>
    </g>
</svg>