<?xml version="1.0" encoding="UTF-8"?>
<svg width="68px" height="69px" viewBox="0 0 68 69" version="1.1" xmlns="http://www.w3.org/2000/svg" xmlns:xlink="http://www.w3.org/1999/xlink">
    <!-- Generator: Sketch 50.2 (55047) - http://www.bohemiancoding.com/sketch -->
    <title>Group</title>
    <desc>Created with Sketch.</desc>
    <defs>
        <polygon id="path-1" points="0.094 0.19 12.882 0.19 12.882 7.869 0.094 7.869"></polygon>
    </defs>
    <g id="Page-1" stroke="none" stroke-width="1" fill="none" fill-rule="evenodd">
        <g id="5082" transform="translate(-130.000000, -2.000000)">
            <g id="Group" transform="translate(130.000000, 2.000000)">
                <polygon id="Fill-356" fill="#333431" points="26.525 41.787 53.641 41.787 53.641 31.871 26.525 31.871"></polygon>
                <path d="M27.862,32.287 C27.862,32.287 25.814,34.467 24.822,29.273 C23.758,23.722 23.797,20.709 25.704,20.075 C26.92,19.669 27.27,20.707 27.27,20.707 L27.862,32.287" id="Fill-357" fill="#F6C9AE"></path>
                <path d="M32.042,40.114 L32.042,44.041 C32.042,45.47 32.685,46.824 33.792,47.727 L37.214,50.52 C38.958,51.944 41.461,51.95 43.213,50.535 L46.688,47.728 C47.805,46.825 48.455,45.465 48.455,44.027 L48.455,39.734 L32.042,40.114" id="Fill-358" fill="#F6C9AE"></path>
                <path d="M32.042,43 C34.252,45.445 37.016,46.781 40.085,46.781 C43.303,46.781 46.2,45.324 48.455,42.638 L48.455,39.734 L32.042,40.114 L32.042,43" id="Fill-359" fill="#EEAA8E"></path>
                <path d="M40.085,44.818 C47.579,44.818 53.325,36.967 53.325,23.96 C53.325,7.742 48.569,3.974 40.085,3.974 C31.6,3.974 26.84,7.742 26.84,23.96 C26.84,36.967 32.588,44.818 40.085,44.818" id="Fill-360" fill="#F6C9AE"></path>
                <path d="M52.494,32.287 C52.494,32.287 54.543,34.467 55.534,29.273 C56.595,23.722 56.56,20.709 54.655,20.075 C53.438,19.669 53.089,20.707 53.089,20.707 L52.494,32.287" id="Fill-361" fill="#F6C9AE"></path>
                <path d="M27.286,27.97 C21.657,25.267 17.605,0.144 37.989,0.144 C43.54,0.144 45.835,2.681 45.835,2.681 C50.143,-1.206 65.251,8.014 52.865,26.361 C52.865,26.361 54.089,17.799 49.487,14.199 C46.216,11.642 45.681,9.818 45.681,9.818 C45.681,9.818 43.47,13.72 36.998,15.362 C30.571,16.996 28.864,21.165 27.286,27.97" id="Fill-362" fill="#333431"></path>
                <path d="M31.939,23.3 C31.152,23.3 30.512,23.94 30.512,24.728 L30.512,25.322 C30.512,26.109 31.152,26.75 31.939,26.75 L36.7,26.75 C37.488,26.75 38.127,26.109 38.127,25.322 L38.127,24.728 C38.127,23.94 37.488,23.3 36.7,23.3 L31.939,23.3 Z M36.7,27.7 L31.939,27.7 C30.631,27.7 29.561,26.634 29.561,25.322 L29.561,24.728 C29.561,23.415 30.631,22.348 31.939,22.348 L36.7,22.348 C38.01,22.348 39.077,23.415 39.077,24.728 L39.077,25.322 C39.077,26.634 38.01,27.7 36.7,27.7 Z" id="Fill-363" fill="#333431"></path>
                <path d="M43.716,23.3 C42.929,23.3 42.29,23.94 42.29,24.728 L42.29,25.322 C42.29,26.109 42.929,26.75 43.716,26.75 L48.476,26.75 C49.263,26.75 49.901,26.109 49.901,25.322 L49.901,24.728 C49.901,23.94 49.263,23.3 48.476,23.3 L43.716,23.3 Z M48.476,27.7 L43.716,27.7 C42.407,27.7 41.341,26.634 41.341,25.322 L41.341,24.728 C41.341,23.415 42.407,22.348 43.716,22.348 L48.476,22.348 C49.787,22.348 50.858,23.415 50.858,24.728 L50.858,25.322 C50.858,26.634 49.787,27.7 48.476,27.7 Z" id="Fill-364" fill="#333431"></path>
                <path d="M67.212,68.461 L64.878,59.429 C64.579,58.275 63.858,57.275 62.858,56.627 L52.296,49.785 L40.075,51.304 L40.075,51.324 L27.875,49.805 L17.313,56.65 C16.313,57.299 15.591,58.299 15.293,59.451 L12.958,68.482 L40.095,68.482 L40.095,68.461 L67.212,68.461" id="Fill-365" fill="#1C5E78"></path>
                <polygon id="Fill-366" fill="#333431" points="38.601 24.33 41.813 24.33 41.813 23.38 38.601 23.38"></polygon>
                <polyline id="Fill-367" fill="#F1AD2B" points="32.053 43.779 31.219 43.779 27.875 49.805 35.856 57.656 40.096 51.325 32.053 43.779"></polyline>
                <polyline id="Fill-368" fill="#F1AD2B" points="48.116 43.759 48.947 43.759 52.296 49.785 44.313 57.635 40.071 51.304 48.116 43.759"></polyline>
                <path d="M42.971,55.6 C42.971,56.647 42.114,57.504 41.067,57.504 L39.288,57.504 C38.241,57.504 37.384,56.647 37.384,55.6 L37.384,53.821 C37.384,52.774 38.241,51.918 39.288,51.918 L41.067,51.918 C42.114,51.918 42.971,52.774 42.971,53.821 L42.971,55.6" id="Fill-369" fill="#333431"></path>
                <polyline id="Fill-370" fill="#333431" points="38.315 57.027 31.219 59.48 31.219 49.945 38.315 52.396 38.315 57.027"></polyline>
                <polyline id="Fill-371" fill="#333431" points="42.044 57.027 49.14 59.48 49.14 49.945 42.044 52.396 42.044 57.027"></polyline>
                <path d="M14.21,60.357 C15.38,62.095 20.479,68.482 20.479,68.482 L7.301,68.482 L1.851,55.072 C-0.682,51.953 0.163,49.066 0.851,46.646 C1.534,44.228 5.452,35.422 5.452,35.422 L13.564,37.242 L22.057,53.037 C22.057,53.037 16.903,57.507 15.281,57.929 C15.083,57.98 14.898,58.031 14.729,58.086 C14.042,58.301 13.589,58.58 13.673,59.191 C13.712,59.492 13.881,59.867 14.21,60.357" id="Fill-372" fill="#F6C9AE"></path>
                <path d="M19.328,34.306 C20.354,33.359 22.356,33.212 23.589,34.816 C24.82,36.419 24.468,37.018 24.468,37.018 L21.602,37.244 L19.328,34.306" id="Fill-373" fill="#EDB192"></path>
                <path d="M17.733,31.911 C18.752,31.97 20.476,32.709 21.374,33.816 C22.271,34.924 19.843,37.018 19.843,37.018 L17.698,36.894 L17.733,31.911" id="Fill-374" fill="#EEAA8E"></path>
                <path d="M13.107,29.957 C14.144,29.955 16.044,30.65 16.167,32.744 C16.291,34.837 14.144,37.018 14.144,37.018 L12.894,37.018 L13.107,29.957" id="Fill-375" fill="#EDB192"></path>
                <path d="M39.809,36.686 C40.543,36.686 41.144,37.287 41.144,38.02 L41.144,51.701 C41.144,52.436 40.543,53.035 39.809,53.035 L10.5,53.035 C9.767,53.035 9.166,52.436 9.166,51.701 L9.166,38.02 C9.166,37.287 9.767,36.686 10.5,36.686 L39.809,36.686" id="Fill-376" fill="#3F403D"></path>
                <polygon id="Fill-377" fill="#91ADA9" points="11.279 51.869 37.695 51.869 37.695 37.853 11.279 37.853"></polygon>
                <path d="M22.886,35.529 C22.886,36.476 21.947,37.244 20.792,37.244 C19.636,37.244 18.699,36.476 18.699,35.529 C18.699,34.584 19.636,33.816 20.792,33.816 C21.947,33.816 22.886,34.584 22.886,35.529" id="Fill-378" fill="#F8D2B7"></path>
                <path d="M7.197,32.287 C8.446,32.023 10.306,32.877 10.306,32.877 L9.431,37.229 L8.83,37.229 L7.197,32.287" id="Fill-379" fill="#EDB192"></path>
                <path d="M7.197,32.287 C5.721,32.533 5.333,33.306 5.403,34.714 C5.474,36.121 5.773,38.512 5.773,38.512 C5.773,39.3 6.41,39.937 7.197,39.937 C7.93,39.937 8.527,39.382 8.605,38.67 L8.621,38.671 C8.621,38.671 8.957,36.508 9.166,34.503 C9.375,32.498 8.674,32.041 7.197,32.287" id="Fill-380" fill="#F9D7BC"></path>
                <path d="M14.144,30.228 C12.209,29.261 10.926,31.019 10.223,33.113 C9.52,35.206 9.431,37.229 9.431,37.229 C9.431,38.103 10.14,38.811 11.014,38.811 C11.666,38.811 12.227,38.416 12.468,37.853 L12.469,37.853 C12.469,37.853 14.109,34.643 14.583,33.592 C15.06,32.541 16.08,31.197 14.144,30.228" id="Fill-381" fill="#F8D2B7"></path>
                <path d="M19.157,34.924 C19.544,34.274 20.265,33.078 18.7,32.226 C17.134,31.373 16.124,32.367 15.447,33.324 C14.769,34.281 14.461,35.487 14.208,36.247 L14.214,36.25 C14.173,36.4 14.144,36.554 14.144,36.718 C14.144,37.709 14.947,38.512 15.939,38.512 C16.554,38.512 17.097,38.201 17.421,37.728 L17.421,37.729 L17.422,37.724 L17.43,37.713 C17.538,37.543 18.788,35.549 19.157,34.924" id="Fill-382" fill="#F8D2B7"></path>
                <path d="M13.626,59.191 C13.106,59.191 8.401,59.086 7.301,55.299 C8.359,56.734 11.035,58.284 13.38,58.284 C13.836,58.284 14.279,58.226 14.696,58.096 C14.08,58.293 13.661,58.546 13.663,59.054 C13.663,59.098 13.666,59.143 13.673,59.191 C13.673,59.191 13.657,59.191 13.626,59.191" id="Fill-383" fill="#F4BC9F"></path>
                <path d="M14.696,58.096 C14.707,58.093 14.718,58.089 14.729,58.086 C14.718,58.089 14.707,58.093 14.696,58.096" id="Fill-384" fill="#FEF0E6"></path>
                <polygon id="Fill-385" fill="#333431" points="21.292 48.529 27.684 48.529 27.684 46.192 21.292 46.192"></polygon>
                <path d="M21.606,46.29 C21.606,46.29 21.125,46.804 20.891,45.58 C20.639,44.271 20.648,43.56 21.098,43.412 C21.385,43.316 21.467,43.56 21.467,43.56 L21.606,46.29" id="Fill-386" fill="#F6C9AE"></path>
                <path d="M22.592,48.134 L22.592,49.06 C22.592,49.397 22.744,49.717 23.005,49.929 L23.812,50.588 C24.223,50.923 24.813,50.925 25.226,50.591 L26.044,49.929 C26.308,49.717 26.461,49.395 26.461,49.056 L26.461,48.045 L22.592,48.134" id="Fill-387" fill="#F6C9AE"></path>
                <path d="M22.592,48.816 C23.112,49.391 23.765,49.707 24.489,49.707 C25.247,49.707 25.93,49.363 26.461,48.73 L26.461,48.047 L22.592,48.134 L22.592,48.816" id="Fill-388" fill="#EEAA8E"></path>
                <path d="M24.489,49.244 C26.254,49.244 27.609,47.392 27.609,44.328 C27.609,40.504 26.487,39.617 24.489,39.617 C22.488,39.617 21.366,40.504 21.366,44.328 C21.366,47.392 22.721,49.244 24.489,49.244" id="Fill-389" fill="#F6C9AE"></path>
                <path d="M27.413,46.29 C27.413,46.29 27.896,46.804 28.129,45.58 C28.379,44.271 28.371,43.56 27.922,43.412 C27.635,43.316 27.553,43.56 27.553,43.56 L27.413,46.29" id="Fill-390" fill="#F6C9AE"></path>
                <path d="M21.471,45.273 C20.145,44.636 19.189,38.713 23.993,38.713 C25.302,38.713 25.843,39.312 25.843,39.312 C26.858,38.394 30.42,40.568 27.5,44.893 C27.5,44.893 27.789,42.875 26.704,42.026 C25.932,41.424 25.807,40.994 25.807,40.994 C25.807,40.994 25.286,41.914 23.761,42.3 C22.246,42.685 21.843,43.668 21.471,45.273" id="Fill-391" fill="#333431"></path>
                <path d="M22.567,44.172 C22.382,44.172 22.232,44.322 22.232,44.508 L22.232,44.649 C22.232,44.834 22.382,44.984 22.567,44.984 L23.69,44.984 C23.876,44.984 24.026,44.834 24.026,44.649 L24.026,44.508 C24.026,44.322 23.876,44.172 23.69,44.172 L22.567,44.172 Z M23.69,45.21 L22.567,45.21 C22.259,45.21 22.007,44.959 22.007,44.649 L22.007,44.508 C22.007,44.199 22.259,43.947 22.567,43.947 L23.69,43.947 C24,43.947 24.25,44.199 24.25,44.508 L24.25,44.649 C24.25,44.959 24,45.21 23.69,45.21 Z" id="Fill-392" fill="#333431"></path>
                <path d="M25.345,44.172 C25.159,44.172 25.007,44.322 25.007,44.508 L25.007,44.649 C25.007,44.834 25.159,44.984 25.345,44.984 L26.465,44.984 C26.651,44.984 26.802,44.834 26.802,44.649 L26.802,44.508 C26.802,44.322 26.651,44.172 26.465,44.172 L25.345,44.172 Z M26.465,45.21 L25.345,45.21 C25.036,45.21 24.784,44.959 24.784,44.649 L24.784,44.508 C24.784,44.199 25.036,43.947 25.345,43.947 L26.465,43.947 C26.775,43.947 27.027,44.199 27.027,44.508 L27.027,44.649 C27.027,44.959 26.775,45.21 26.465,45.21 Z" id="Fill-393" fill="#333431"></path>
                <g id="Group-403" transform="translate(18.000000, 44.000000)">
                    <mask id="mask-2" fill="white">
                        <use xlink:href="#path-1"></use>
                    </mask>
                    <g id="Clip-395"></g>
                    <polygon id="Fill-394" fill="#333431" mask="url(#mask-2)" points="6.137 0.416 6.895 0.416 6.895 0.19 6.137 0.19"></polygon>
                    <path d="M3.609,6.42 L1.12,8.032 C0.883,8.184 0.713,8.421 0.643,8.693 L0.094,10.822 L6.489,10.822 L6.489,6.777 L3.609,6.42" id="Fill-396" fill="#1C5E78" mask="url(#mask-2)"></path>
                    <polyline id="Fill-397" fill="#F1AD2B" mask="url(#mask-2)" points="4.595 5 4.398 5 3.609 6.42 5.49 8.269 6.491 6.777 4.595 5"></polyline>
                    <path d="M9.366,6.415 L11.856,8.028 C12.092,8.18 12.262,8.417 12.333,8.689 L12.882,10.818 L6.485,10.818 L6.485,6.773 L9.366,6.415" id="Fill-398" fill="#1C5E78" mask="url(#mask-2)"></path>
                    <polyline id="Fill-399" fill="#F1AD2B" mask="url(#mask-2)" points="8.38 4.994 8.577 4.994 9.366 6.415 7.485 8.265 6.485 6.773 8.38 4.994"></polyline>
                    <path d="M7.167,7.786 C7.167,8.032 6.966,8.234 6.719,8.234 L6.299,8.234 C6.053,8.234 5.851,8.032 5.851,7.786 L5.851,7.366 C5.851,7.12 6.053,6.918 6.299,6.918 L6.719,6.918 C6.966,6.918 7.167,7.12 7.167,7.366 L7.167,7.786" id="Fill-400" fill="#333431" mask="url(#mask-2)"></path>
                    <polyline id="Fill-401" fill="#333431" mask="url(#mask-2)" points="6.07 8.121 4.398 8.7 4.398 6.453 6.07 7.031 6.07 8.121"></polyline>
                    <polyline id="Fill-402" fill="#333431" mask="url(#mask-2)" points="6.949 8.121 8.623 8.7 8.623 6.453 6.949 7.031 6.949 8.121"></polyline>
                </g>
                <path d="M22.604,51.756 C22.604,52.631 21.64,53.34 20.449,53.34 C19.259,53.34 18.294,52.631 18.294,51.756 C18.294,50.883 19.259,50.174 20.449,50.174 C21.64,50.174 22.604,50.883 22.604,51.756" id="Fill-404" fill="#F6C9AE"></path>
                <path d="M21.029,50.174 C19.175,50.191 16.625,52.195 15.429,53.34 C14.232,54.482 18.229,56.128 18.229,56.128 L22.559,52.872 L21.029,50.174" id="Fill-405" fill="#F6C9AE"></path>
                <path d="M10.505,38.128 C9.175,37.631 9.977,35.911 10.482,34.558 C10.965,34.224 12.603,34.765 12.865,35.449 C12.167,37.316 11.59,38.533 10.505,38.128" id="Fill-406" fill="#FBDFC8"></path>
                <path d="M15.357,38.128 C14.026,37.631 14.829,35.911 15.334,34.558 C15.817,34.224 17.454,34.765 17.718,35.449 C17.018,37.316 16.442,38.533 15.357,38.128" id="Fill-407" fill="#FBDFC8"></path>
                <path d="M7.246,39.351 C6.102,39.373 6.193,37.847 6.171,36.686 C6.433,36.293 7.819,36.213 8.219,36.646 C8.249,38.252 8.178,39.334 7.246,39.351" id="Fill-408" fill="#FBDFC8"></path>
            </g>
        </g>
    </g>
</svg>